<?xml version="1.0" encoding="utf-8"?>
<!-- Generator: Adobe Illustrator 21.0.0, SVG Export Plug-In . SVG Version: 6.00 Build 0)  -->
<svg version="1.1" id="Layer_1" xmlns="http://www.w3.org/2000/svg" xmlns:xlink="http://www.w3.org/1999/xlink" x="0px" y="0px"
	 viewBox="0 0 1920 1080" enable-background="new 0 0 1920 1080" xml:space="preserve">
<path opacity="0.1" fill="#36332F" d="M1920,189.4c-11.8,12.1-17.1,23.3-17.1,23.3s17.2-95.7-93.3-95.7
	c-110.4,0-126.5,84.2-126.5,84.2s-39.5-51.4-101.4-24.9c-41.4,17.7-44.5,58.1-43.3,72.5c-52.3,2.3-83.9,5.3-84.6,8.5
	c-1.6,7.6,170.2,13.7,383.6,13.7c28.3,0,55.9-0.1,82.5-0.3V189.4z"/>
<path opacity="0.2" fill="#746C67" d="M429.7,105.2c-16.9-33.2-66.2-11.5-66.2-11.5s3.4-33.1-37.9-36c-41.3-2.9-50.8,28-50.8,28
	s-1.6-51.1-68.3-51.1c-66.7,0-65.9,44.9-65.9,44.9s-35-33.4-64.3-13.3C54.8,81,56.7,97.3,59.2,105c-31.3,1.2-50,2.8-50,4.5
	c0,4,104.5,7.3,233.4,7.3c128.9,0,233.4-3.3,233.4-7.3C476,107.9,458.8,106.4,429.7,105.2z"/>
<linearGradient id="SVGID_1_" gradientUnits="userSpaceOnUse" x1="792.7182" y1="503.5931" x2="792.7182" y2="656.1717">
	<stop  offset="0" style="stop-color:#005384"/>
	<stop  offset="1" style="stop-color:#0067A0"/>
</linearGradient>
<path fill="url(#SVGID_1_)" d="M1488.8,800.6c-45.4-13.4-91.7-19.3-138.2-22c-30.9-1.8-61-4.4-91.6-11.4
	c-40.2-9.3-77.6-26.8-115.4-44c-17.5-8-31-16.3-49.6-17.5c-34.8-2.2-70.8-0.5-103.4-16.8c-15.9-8-30.9-20.4-45.2-31.3
	c-4.7-3.6-8.9-8.4-13.7-11.7c-4.5-3-11.1-3.5-16.4-3.2c-8,0.5-13.9,6.4-21.7,7.5c-3.7,0.5-7.6-0.2-11.3-0.6c-4.6-0.4-9.2-0.7-13.8-1
	c-20.2-1.3-42.1-0.8-58.9-15.6c-3.3-2.9-4-4.4-8.5-5.3c-8.2-1.7-17.4-1-25.7-1.6c-18.8-1.3-37.5-2.6-56.3-3.9
	c-2.8-0.2-4.7-0.1-7.4-0.9c-6.4-2-13.9-6.4-19.9-9.2c-11.9-5.5-23.8-11-35.6-16.6c-19.3-9.2-39.4-18.2-55.1-33.4
	c-4.1-4-7.6-9.3-12-12.9c-9.5-7.8-21.2-14.1-31.6-20.5c-8.7-5.3-18.2-10.4-26.4-16.5c-2.9-2.2-5.1-3-8.2-4.6
	c-10.3-5.6-5.3-17.3-7.2-26.1c-4.3-2.9-17.2,3.9-20.9,4.5c-7.6,1.2-17.2,0.7-25-0.7c-14.5-2.6-26.4-18.3-37-27.8
	c-8.4-7.6-16.9-17.4-27.5-21.4c-7.5-2.8-15.2-2.2-23-4.3c-20.7-5.6-54.8-15.1-62.3-39.7c-12.6-2-24.7-6.7-36.8-11.1
	c-19.8-7.2-40.8-20.2-61.7-21.7c-10.3-0.8-20.5,5.1-29.9,7.6c-21.4,5.8-42.4,9.9-65,7.2c-4.8-0.6-8.7-2.8-13.7-3.3
	c-5.9-0.6-12-1.4-17.4-0.1c-12.2,2.9-23.5,12.4-34,18.5c-18,10.5-37.2,17.9-57.4,23.6c-1.3,0.4-2.6,0.7-4,1.1v666h1585.4V827.7
	c-12.2-3.3-24.4-6.5-36.5-10C1528.9,811.9,1508.8,806.5,1488.8,800.6z"/>
<g>
	<g>
		<g>
			<linearGradient id="SVGID_2_" gradientUnits="userSpaceOnUse" x1="1138.2997" y1="598.288" x2="1138.2997" y2="929.5544">
				<stop  offset="0" style="stop-color:#003D72"/>
				<stop  offset="1" style="stop-color:#005399"/>
			</linearGradient>
			<path fill="url(#SVGID_2_)" d="M1921,494.1c-0.7,0-1.4-0.2-2.2-0.5c-0.6-1.1-1.5-2-2.9-2.7c-10.5-7.1-13.7-17.9-20.2-27
				c-6.3-7.7-12.2-15.5-17.8-23.5c-1.2-3.3-2.7-6.4-4.7-9.5c-2.6-1.6-5.1-3.1-7.6-4.8c-6.7-5.4-12.3-11.4-16.9-17.9
				c-13.1-14.9-28.6-28.6-38.1-45.1c-6.9,5-8.3,18.5-11.7,25.5c-2.5,5.1-5,11.2-10.6,14.7c-5.2,3.3-7.7,3.9-13.3,8.3
				c-5.6,4.4-10.7,9.5-16.8,13.4c-14,8.9-30.5,15.1-42.3,25.9c-3.2-3-3.2-6.9-3.9-10.4c-1.5-8.1-2.6-16.1-5.9-23.9
				c-5.5-1-7.4,3.4-9.6,6.2c-3.6,4.4-9,7.7-12.6,12.1c-0.9,1.1,0.1,3-0.6,4.2c-3.4,5.5-10.8,10.7-15.8,15.4
				c-5.8,5.6-8.8,9.9-12.4,16c-6.1,10.4-14.4,20.7-21.5,30.7c-4.1,5.7-7,5.1-15.4,4.6c-7.7-0.4-15.2-2.7-23-2.6
				c-10,0.2-7.5,5-11.3,11.7c-5.9,10.3-8.5,21.6-10.3,33c-1.3,8.5-3.4,12.6-12.4,18c-11.9,7.1-21.8,14.1-31.3,23
				c-4.9,4.6-12.2,7.2-16.6,11.9c-3.4,3.6-5.5,7.6-9.6,11c-3,2.5-5.7,4.4-8.5,7c-10.3,10-23,16.7-36.4,24.4
				c-8.3,4.8-16.2,10-24.2,15.1c-3.4,2.2-9.6,7.9-14.4,8.8c-1.3-7.4-0.2-15.3,0-22.8c0.2-7.2,2.3-13.5-9.7-12.7
				c-16.5,1.1-31.2,13.5-44.7,19.4c-5.2,2.3-7.9,4.8-12,7.5c-6.7,4.4-15.9,5.8-23.8,8.9c-12.8,4.9-23.4,11.8-35.2,17.8
				c-8.6,4.4-18.6,6.6-25.4,12.6c-6.1,5.4-12.4,11.4-15.9,17.9c-2.3,4.3-3.6,8.5-8.4,11.9c-19.8,14.1-62,13.8-86.3,17.9
				c-21.3,3.6-43.8,6-62.9,13.5c-16.1,6.3-30.7,14.4-48.8,17.3c-7.5,1.2-14.3,2-21.4,4.1c-4.1,1.2-9.7,3.7-14.1,4.4
				c-7,1.1-7.9,0.5-13.3,2.4c-9,3.2-17.1,7.5-24.9,12.2c-10.9,6.5-23.6,10.3-35.2,15.9c-5.6,2.7-11.9,5.9-18,7.8
				c-8.9,2.8-18.3,1.2-26.9,4.3c-9.2,3.4-18.9,9.2-28,13.1c-40.9,17.5-81.6,34.2-126.9,45c-17.5,4.2-37,11.1-55.3,13
				c-6.3,0.7-11.5-0.5-17.5-0.1c-6.5,0.4-12.4,2.9-18.5,4.1c-18.4,3.8-38,4.7-56.7,7.1c-25.4,3.3-49.3,7.4-73.9,13.2
				c-54.5,13-108.2,30.7-161,47.4H1921V494.1z"/>
		</g>
		<path opacity="2.000000e-02" fill="#FFFFFF" d="M1106.2,796.9c3.5,0.2,9.9-3.1,13-4.6c3.9-1.9,6.7-6.3,10.7-7.6
			c2.8-0.9,6.6-0.3,9.5-0.3c8.8,0,16.7-1.6,25.2-3.6c7.5-1.8,20.4-2.7,25.6-7.8c3.9-3.8,3.4-9.2,6.5-13.1c3.8-4.8,7.5-0.6,12.3,1.3
			c4.2,1.6,7.9,1.7,12.4,1.8c13.1,0.1,25.7-7.2,37-12.5c4.2-2,5.6-6.1,9.6-8.6c3.2-2,7.5-3.4,11-4.9c7.8-3.4,15-7.7,22.3-11.7
			c16.1-9.1,31-16.2,41.4-29.4c3.5-4.4,6.7-7.8,13-9.5c4.5-1.2,9.2-3.1,13.7-4.1c2.1,6.4-2.1,14.3,0.2,20.5c1.5,4.1,4,2.8,8.8,2.8
			c4.2,0,6.8-1.3,10.8-1.9c3.6-0.5,7.3,0.5,10.9-0.2c17.4-3.2,28.9-14.4,42.9-21.2c4.9-2.4,11.3-3.1,16.7-4.7
			c17.8-5.5,33.7-16.4,49.7-24.7c3.5-1.8,9.4-3.6,11.9-6.4c1.5-1.6,1.8-3.6,3.2-5.3c1.9-2.4,4.7-3.3,7.2-5.2c3.2-2.5,5.3-5.6,8.8-8
			c5.9-4.1,13-7,18.6-11.3c4.4-3.4,7.5-7.6,10.5-11.9c2.8-4,2.9-7.4,4.3-11.8c1.1-3.7-0.4-9.6,2.4-12.5c4.4-4.6,10.1,0.4,14.8-1.8
			c3.8-1.8,3.1-9.1,3.2-12.3c0.2-5.9,1.8-10.8,3.5-16.3c0.9-3,0.4-5.9,1.3-8.8c4.6-1,6.7-0.2,11.3-1.9c8.7-3.3,19-1.8,28.4-1.8
			c9.4,0.1,11.7,1.4,15.4-5.3c2.7-5,3-8.4,3-13.8c0-2.3-1.1-7.7-0.3-10.2c1-3.1,3.7-3.7,7.3-5.1c6.6-2.6,12.8-4,20-5
			c4.8-0.7,10.2-0.8,14.5-3.1c3.1-1.6,5.9-4.2,8-6.7c4.7-5.5,8-12.1,12.9-17.8c3.9-4.5,7.7-9,12-13.2c2.5-2.4,6.1-7.4,9.7-8.7
			c7.8-3,18.1,1,26.4-0.5c4.2-0.8,5.2-2.9,7.5-5.5c4.2-4.6,6.5-7.4,12.6-8.8c3.5-0.8,6.1-3.2,9.7-3.8c6.2-1,7.8,1.6,4.7,5.4
			c-2.4,2.9-6.2,5.2-8.7,8.3c-3,3.8-5.1,8-8.4,11.7c-2,2.2-5,4.5-6.2,7.1c-1.2,2.7-0.2,4.4-1.1,6.8c-8.1,1.5-18.5-2.4-25.3,2.6
			c-6,4.4-8.2,13.1-12,19c-4,6.2-8.9,12.2-16,15.9c-16.5,8.8-31.2,17.3-32.8,34.2c-1.6,16.4-5.8,32.5-8.1,49
			c-0.9,6.3-1.8,12.6-2.6,18.9c-0.4,3-1.1,4.8-3.7,7c7,2.2,20.2-1.4,23.3,7.3c2.1,6-1.1,15.1-2.3,20.9c-2.2,9.9-4.7,21.1-8.4,30.6
			c-2.8,7-6.7,13.6-10.3,20.3c-2.1,4-3.3,8.8-6.1,12.5c-7,9.1-21.7,14.2-31.8,20.6c-4,2.5-9.6,5.2-12.7,8.6
			c-2.3,2.4-2.4,4.6-3.9,7.3c4.6-3,0.6-10.6,2.1-14.8c3.5-0.5,4.2,0,6.2-2c2.3-2.2,2.3-6.1,3.7-8.7c1.6-3.1,4.3-5.1,5-8.4
			c1-4.9,0-11.1-0.1-16.1c-0.1-4-0.4-6.1,3.2-9c3.1-2.5,7-3.4,9.9-6.2c6.8-6.5,0.4-17.5,8.5-23c1.9-1.3,6.1,0.3,4.1-3.4
			c-0.6-1.2-6.8-4.8-8.4-5.5c-3.6-1.6-6-2.2-8.8-5.4c-2.4-2.8-2-4.4-2-8.5c0-2.8-0.3-5.7-0.2-8.6c0.2-5.8,4.3-10.6,4.6-16.3
			c0.4-8-0.6-16,0.1-23.9c-1.2,2.9-3.1,6-4.5,8.7c-1.7,3.4-4.7,6-7.1,9.3c-2.3,3.2-4.3,6.2-6.9,9.3c-3.2,3.7-4.7,8.3-8,11.9
			c-2.3,2.2-4.9,4-8,5.4c-1.4,0.8-2.3,1.9-2.9,3.1c-2.4,1.1-5.4-0.2-8,0.1c-10.5,1.4-18.5,8.9-25.9,14.5
			c-9.6,7.3-22.1,13.8-33.7,18.8c-7.9,3.4-14.8,6.4-21.2,11.8c-8.3,6.9-11.7,14.7-16.2,23.4c-10.2,20-29.5,37-49.9,50.1
			c-6.2,4-8.7,2.9-16.1,4.6c-4.9,1.1-9,3.4-13.2,5.8c2.7-4.6-13.5-3.6-15.3-3.6c-7,0.2-12.8,1.5-19.4,2.9c-4.9,1.1-6.9,0.2-11.8,0.6
			c-4.6,0.4-8.5,2.5-13,3.4c-3.8,0.7-7.2,1-10.8,2.1c-7,2.2-14.1,3.3-21.1,5.6c-11.2,3.7-21.9,9.4-34,10.7
			c2.4-7.6,6.1-15.3,12.3-21.3c1.7-1.5,3.5-3,5.2-4.4c2.3-2.1,3.3-4.5,3-7.3c2-4.5,5.5-10.4,5.8-14.8c-10.2,2.3-19.6,8.6-28.7,12.8
			c-11.8,5.4-24.2,9.8-37.4,12c-1.5,5.3-9.9,8.5-15.2,10.5c-5.7,2.1-11,5.1-16.5,7.6c-14.4,6.6-30.6,12.3-47.2,13.7
			c-11.9,1-24.4,0.1-36.5,0.1C1141.3,791.5,1133,793.3,1106.2,796.9z"/>
	</g>
	<path opacity="3.000000e-02" fill="#FFFFFF" d="M1919.7,930.3c-13-0.7-27.1-1.4-42.4-2.1c6.8-22.2,11.7-69.2-45.5-111.6
		c-78.3-58-171.5,38.2-171.5,38.2s2.2-129.4-175.6-129.4c-61.7,0-102.5,17.7-129.5,40.9c-34.9,30-86.9,42.6-134.8,29.7
		c-15-4-32.6-5.9-53.2-4.3c-39.3,3-63.4,17-78.2,33.9c-26.1,29.8-66.7,49.3-111.2,49.7c-33.8,0.3-68.9,12.3-88.1,53.3
		c-77.5,3.5-123.4,7.9-123.4,12.6c0,11.7,278.5,21.1,622.1,21.1c224.9,0,422-4.1,531.3-10.1V930.3z"/>
</g>
<g>
	<g>
		<linearGradient id="SVGID_3_" gradientUnits="userSpaceOnUse" x1="959.9606" y1="407.21" x2="959.9606" y2="905.6561">
			<stop  offset="0" style="stop-color:#00264A"/>
			<stop  offset="1" style="stop-color:#003E72"/>
		</linearGradient>
		<path fill="url(#SVGID_3_)" d="M1745.4,672.5c-6.4,3.2-27.9,18.1-39.6,18.2c-3.7,0-7.4-0.1-11-0.1c-9,0-13.5,0.6-20.9,5
			c-1.3,1.3-2.9,2.3-4.9,3c-1.6,0.3-3.3,0.4-4.9,0.1c-3.9,0.7-7,3-10.9,3.9c-4.4,1-8.7,1.7-13.4,1.3c-5.3-0.5-9.6-3.1-15-3.5
			c-6.6-0.6-13.9,0.3-20.6,0.2c-8-0.2-7.1,1.6-13.3,6c-14.8,10.6-33.1,18-48.9,27.6c-3.9,2.4-6.2,4.2-10.3,6.1
			c-7.9,4.5-15.9,9-23.9,13.5c-16.1,9-31.9,18.3-47.3,27.9c-13.4,9.3-27.5,18-42.2,26.2c-7.7,3.5-15.8,6.5-24.2,8.8
			c-3.6,2.4-5.9,4.6-10.7,6.3c-4.8,1.7-8.7,1.4-13.8,1.5c-8.3,0.1-15.3-1-23.3-2.8c-7.9-1.8-13.2-4.7-20.5-7.2
			c-8.7-3-21.1-2.5-29.7,0.1c-4.4,1.4-8.4,1.5-12.5,3.2c-5.3,2.1-10.9,5.3-16.7,6.4c-7.8,1.6-16.5,2.1-24.4,3.4
			c-14.7,2.5-25.5,7.4-39,12c-11.1,3.1-22,6.4-32.9,9.9c-6.3,2.5-12.8,4.6-19.6,6.3c-3.2-0.2-6.2,0-9.3,0.9
			c-9.9,2.9-19.7,6-29.5,9.3c-13.5,3.8-31.6,8.6-46.5,6.5c-4.2-0.6-5.5-0.5-8.2-3.6c-7.7-9.1-3.4-22.2-4.4-32.4
			c-6.9-1.4-12.9-4.8-19.2-7.3c-7.9-3.1-11.9-9.4-19.4-12.7c-5.8-2.6-6.8-1.9-8.6-7.7c-2.1-7.1-4-14.3-5.6-21.5c1-3.9-0.3-6.6-4.1-8
			c-15.1,12.1-28.8,24.9-51.6,28.4c-13.4,2-30,0.4-43.4,0.4c-17.3,0-32.9-1.1-49.5-4.5c-5.1-1-4.8,0.2-9.2-0.1
			c-5.2-2.5-9.8-5.5-13.8-9c-6.4-4.5-12.1-9.4-17-14.8c-3.4-3.8-5.9-7.6-10.9-10.4c-19.9-11.3-33.1-26.5-46.5-42.5
			c-4-4.7-7.5-10.1-11.7-14.6c-0.5-1-1-2-1.7-3c-4.1-1.5-7.7-3.4-11-5.8c-14.5-8.9-24.6-20.8-35.6-32c-2-2.1-4.6-5.9-8.2-6.9
			c-2.6-0.8-4.5-0.3-7,0.2c-8.5,2-16.2,7.8-24.4,10.9c-13.3,5.1-26.8,5.7-41.4,5.1c-7.7-0.3-11.1-3.5-17.8-6.6
			c-11.4-5.2-23.9-7.5-35.6-12.3c-6.8-2.8-14-5.5-21.1-7.5c-9.8-2.7-16.6-9.4-24.9-14.2c-3.1-1.8-7.6-3.7-10.1-6.1
			c-1.2-1.5-2.3-3.1-3.3-4.7c-3.7-6-8.6-11.5-14.7-16.4c-26-25.9-56.3-49.8-83.4-75c-9.9-9.2-19.1-20.1-31.1-27.7
			c-7,3.4-11.9,9.7-20.9,10.6c-1.7,0.2-7.3,0.5-8.8-0.3c-2.7-1.3-5.9-8.8-6.7-10.9c-2.7-7.5-3.2-19.7-11.4-25
			c-0.8-0.5-5.5-2.9-6.3-3.2c-5.9-2-12.9,1.3-18.8-1.8c-1.1-1.1-2.3-2.2-3.5-3.2c-4.3-1.9-8.4-4-12.3-6.4c-6.4-4-12.2-8.5-17.2-13.6
			c-2.5-3.5-5.9-6.4-10.1-8.7c-3.4-0.8-6.4-0.1-8.9,2.1c-13.7,9.1-27.6,18.2-41.6,27.1c-24.3,15.1-51.7,27.9-75.4,43.5
			c-6.3,4.2-11,3.9-18.9,3.7c-5.4-0.1-13.3-0.1-18.2-1.6c-3.5-1.1-4.7-4.1-6.7-6.3c-4.4-4.9-8.7-7.7-15.9-10.4
			c-8.6-3.2-13.6,0-20.8,4.8c-3.4,2.8-6.9,5.4-10.6,7.8c-2.7,1.2-5.5,2.4-8.3,3.4c-3.5,2.1-6.1,5.2-9.1,7.5
			C11.5,536.2,6.6,546,0,554.8V1080h1919.9V608.3c-8.9,2.8-17.9,5.5-26.8,8.3C1841.3,631.6,1792.1,650.2,1745.4,672.5z"/>
		<g>
			
				<linearGradient id="SVGID_4_" gradientUnits="userSpaceOnUse" x1="1465.9703" y1="527.9683" x2="1465.9703" y2="777.4684" gradientTransform="matrix(1.8249 -0.1078 -8.200000e-03 1.2804 -856.2956 -64.8999)">
				<stop  offset="0" style="stop-color:#00264A"/>
				<stop  offset="1" style="stop-color:#003E72"/>
			</linearGradient>
			<path fill="url(#SVGID_4_)" d="M1820.3,669.6l-2.2,0.2c-3.2,0.3-6.1-1.6-6.5-4.2l-10.1-68.6c-0.4-2.6,1.9-5,5.1-5.4l2.2-0.2
				c3.2-0.3,6.1,1.6,6.5,4.2l10.1,68.6C1825.8,666.9,1823.5,669.3,1820.3,669.6z"/>
			
				<linearGradient id="SVGID_5_" gradientUnits="userSpaceOnUse" x1="1807.0018" y1="530.5605" x2="1807.0018" y2="779.5701" gradientTransform="matrix(0.9995 -3.200000e-02 3.200000e-02 0.9995 -24.1665 18.64)">
				<stop  offset="0" style="stop-color:#00264A"/>
				<stop  offset="1" style="stop-color:#003E72"/>
			</linearGradient>
			<path fill="url(#SVGID_5_)" d="M1827.6,614.4c-2.3,0.1-4.5,0.1-6.8,0.2c-2.5,0.1-5,0.1-7.5,0.2c-0.9,0-2.2-0.2-3,0
				c-1.5,0.4-1.5,1.5-2.5,2.6c-1.4,1.4-3.1,2.8-5.3,3.1c-2.6,0.3-5.3-0.2-7.8,0.1c-2.1,0.3-3.6,1.7-5.7,2.1
				c-3.4,0.5-7.4-1.8-10.3-2.8c-2.3-0.8-4.6-1.7-7.2-1.6c-1.9,0.1-2.5,0.8-4,1.7c-2.2,1.2-5,0.3-6.8,1.4c-2,1.2-2.7,3.4-5.6,3.3
				c-2.6-0.1-4.9-1.6-7.6-1.6c-1.2,0-2.3,0.2-3.5,0.2c-2.8,0-5.6-0.8-8.2-1.5c0.1,0-5.4-1.3-5.8-2.3c2.4-0.6,4.6-1.6,4.7-3.8
				c0-1.9-0.7-3.5-1-5.3c-0.1-0.7-0.4-1.9,0.4-2.3c0.9-0.5,1.7-0.1,2.6-0.7c2.8-1.9,0.3-6,1-8.5c0.3-1.2,1.2-1.4,2.1-2.2
				c-2-12.7,9-27.3,16-44c0.5-1.4,0.8-2.8,0.9-4.3c0.1-1.5,0-3-0.3-4.6c-1.5-1.7-2.6-3.4-3.3-5.1c-6.5-15.2,16.1-28.9,12.4-43.5
				c1-1.5,1.9-3,2.9-4.5c3.6-5.9,6.5-11.5,6.8-17c0.5-1.2,1-2.5,1.5-3.7c1-2.5,2.1-4.9,2.9-7.5c0.6-1.8,0.5-4.1,0-5.9
				c-0.6-2.5-0.7-5-1.2-7.5c-0.3-1.3-0.7-2.8-0.5-4.1c0.2-1.2,1.1-1.8,1.8-2.9c1.6-2.3,3-5.1,3.8-7.6c0.3-0.9,0.2-3.9,1.7-4.1
				c3.5-0.4,4.3,7.9,4.7,9.4c1,3.7,1.8,7.2,4.8,10.1c0.7,0.7,1.8,1.6,2.2,2.5c0.6,1.3,0.1,3.2,0.2,4.6c0.1,2.6,1,4.7,1.8,7.1
				c0.2,0.7,0.1,1.2,0.7,2c1,1.5,2.3,3,3.8,4.1c1.1,0.8,1.5,1.2,1.9,2.4c1.5,4.3,2.3,8.6,5.1,12.5c1.7,2.5,4.2,4.5,6.3,6.8
				c0.8,0.9,1.9,1.7,2.6,2.7c1,1.2,0.6,1.2,1.2,2.8c0.7,1.7,2.4,2.5,3.7,3.7c1.2,1,1.5,2.5,2.4,3.7c3.2,4.4,6,7.9,6.9,13.1
				c0.6,3.4,0.3,6.9,0.9,10.3c0.7,3.8,3,7.3,5.6,10.4c1.7,2.1,4.5,4.2,5.7,6.5c0.3,0.5,0.3,1.2,0.5,1.7c0.7,1.8,1.9,3.1,3.4,4.5
				c1.7,1.7,3.7,3.4,5.3,5.1c1.3,1.3,1.6,3.3,2.4,4.9c1.7,3.3,4.1,6.4,5.8,9.7c1.6,3.2,2.6,7.2,3.5,10.5c0.7,2.8,1.1,5.4,1.2,8.3
				c0,1,0,2.1,0.2,3.1c0.8,3.1,3.7,5.7,5.9,8.2c0.7,0.8,2.1,3,1.8,4.2c-0.3,1.2-2.1,1.2-3.4,1.5c-2,0.5-2.5,0.8-2.3,2.5
				c0.1,1.4,0.1,2.8,0.4,4.2c-2.8,2.3-7.5,2-11.1,2.1c-3.1,0.1-6.1,0.2-9.2,0.2c-5,0.1-9.5-0.2-14.4-1.2c-1.5-0.3-3.2-0.4-4.7,0
				C1829.8,614.8,1828.9,615.4,1827.6,614.4z"/>
		</g>
	</g>
	<path opacity="2.000000e-02" fill="#FFFFFF" d="M68.8,526c8.5-1.6,20.3,7.9,26.1,12c4.7,3.3,8.9,11.3,14.7,13.1
		c4.7,1.5,11.4-0.8,16.5,0.1c4.3,0.7,3.1,2.1,7.6,0.5c3.6-2.1,6.7-4.7,9.4-7.6c4.1-3.5,8.4-6.8,12.9-9.9c5.1-3.6,11.6-5.7,17.7-8
		c9.7-3.7,18.3-7.5,27-12.6c10.6-6.2,21.9-10.6,33.4-15.9c3.9-1.8,10.3-3.4,13.6-5.7c2.4-1.7,1.8-3.2,3.7-5.2
		c10.4-0.6,6.3,21.6,13.3,25.9c7.7,4.6,13.8-8.6,22.2-6.1c1.2,4.9,2.7,6.6,7.7,9.4c4.8,2.7,9.3,4.2,11.9,8.2
		c2.2,3.3,2.7,7.7,6.4,10.5c1.5,1.1,3.7,1.8,5.3,3.1c3.2,2.6,5.9,5.5,9.3,8c6.3,4.6,10.2,11.1,19,7.9c10.3-3.7,12.8-3.8,23.2,2.4
		c8.6,5.1,17.9,9.8,26.4,14.9c1.8,1.1,2.2,1.5,3.6,2.6c11.6,10,15.4,24.8,24.9,36c8.4,9.9,22.5,15.3,30,25.9
		c5,7.1,9.8,15.1,16.4,21.2c2.7,2.5,4.9,2.7,8.3,4c8.2,3.1,13.6,9.6,21.6,13.1c6.6,2.9,12.8,1.8,19.3,4.2
		c11.8,4.5,22.3,12,34.5,15.8c5.7,1.8,7.4,3.2,11.3,7.8c8.5,10.1,15.4,21.2,23,31.8c1.6,2.2,9.6,16,13.4,15c-2.2-0.8-4.6-0.1-7-0.4
		c-5.1-0.6-7.7-2.3-11.5-5.6c-5.7-4.8-9.1-11.2-14.5-15.8c-3.9-3.3-12.6-6.4-17.5-8.4c-6.1-2.5-11.2-4.1-18-4.2
		c-15.6-0.2-30.2,5.2-45.1,8.4c-4.4,0.9-9.7,1.7-13-1.1c-2.7-2.3-3.4-6.4-4.8-9.2c-1.2-2.4-1.3-5.1-2.4-7.4
		c-1.7-3.4-5.2-5.9-8.1-8.6c-4.7-4.4-9-7-14.6-10.4c-4.3-2.7-8.5-5.8-12.3-8.9c-3.2-2.7-5-6.4-8-9c-3-2.6-7.1-3.4-9.7-6.6
		c-2.7-3.3-2.8-7.5-4.3-11.2c-3.8-9.4-9.9-18.1-14.8-27.1c-2.3-4.3-6.1-18.6-14.4-15.8c-5.3,1.8-6.4,4.8-12.8,5.2
		c-24.3,1.5-40.9-18.5-62.7-24.2c5,6.3,8.8,13.1,15,18.7c2.1,1.9,3.5,3.4,6.6,3.8c1.3,0.2,3.2-0.7,4.4-0.3c3.8,1.3,1.3,6.5,2.8,9.6
		c2.1,4.2,6.5,4.7,10,7.2c6,4.3,8.1,8.5,9.7,14.6c4,14.8,1.1,31.7,1.1,46.8c0,9.4,0.1,18.8,0,28.3c0,2.9-1,7.7,0.5,10.6
		c2.8-3.5,1.8-8.4,1.7-12.4c-0.1-4.6,0.1-5.4-4.4-8c-6-3.5-7.2-10.2-12.8-12.5c-4.5-1.8-6.2-0.5-6.7-5.3c-0.6-6.8,0.2-13.4-2-20.2
		c-2.3-7.1-2.7-6.7-8.9-8.4c-3-0.8-4.7-3.3-7.1-5.1c-6.9-5.6-15.5-9.2-23.5-13.6c-8.1-4.5-13.7-10.4-21.2-15.2
		c-3.8-2.5-8.8-5.4-11.1-8.9c-1.8-2.8-1.2-5.6-2.3-8.5c-1.4-3.9-4-8.5-5.8-12.3c-2.6-5.4-6.5-11.7-10.5-16.4
		c-4.7,8.4-10.3-2.9-13-6.8c-3.8-5.6-7.9-11.1-12.2-16.4c-1.3-1.6-4.2-6.5-6.5-7.4c-4.6-1.6-17.1,3.6-20.8,5.1
		c-8.2,3.3-15.8,6.3-24.7,8.3c-4.5,1-13.8,2.1-16.4,5.8c3.8,1.1,2.8,6.3,2.5,9c-8.1,1.2-16.6,0.6-24.9,1.6c-2.6,0.3-6.4,1.2-9.1,0.4
		c-6.2-1.8-8.2-10.2-13.7-13.3c-3.8-2.2-8.2-2.5-12-4.6c-1.8-1-3.2-2.4-4.6-3.8c-3.1-3.3-6.6-8.1-9.3-11.8
		C74,541.8,69.7,536.7,68.8,526z"/>
	<path opacity="2.000000e-02" fill="#FFFFFF" d="M1125.2,899.8c10.5,1.3,25-6,34.3-8.9c24.5-8,48.8-15.4,74.3-21
		c18.1-4,35.3-8.1,52.8-13.6c7.8-2.4,15.1-2.9,22.8-5.2c5.4-1.7,12.7-2.6,17.7,0.4c3.2,1.9,6.1,6.2,9.7,7.4
		c4.9,1.5,14.2-0.1,19.6-0.1c4.9,0,10,0.4,14.9,0.2c6.4-0.3,11-3.8,17.1-5.2c5-1.2,10.1-2.9,14.9-3.8c7.3-1.4,15.9-0.1,23.5-1.1
		c7.9-1.1,16-1.9,23.3-4.7c12.9-5,22.5-14,35-19.4c3.1-1.4,5.8-1.8,8.6-3.5c5.4-3.2,10.9-6.6,16.1-10c22.7-14.8,43.3-32,67.3-45.6
		c2.6-1.4,6.5-2.3,8.6-4.3c1.7-1.6,1.6-3.5,3.6-4.7c0.4-0.2,15.8,0.2,11.3,0.2c5.4,0,10.8,0,16.2,0c6.3,0,17.2,1.9,23.1-0.3
		c2-0.7,4-2.4,6-3.2c4.1-1.7,7.7-3.8,11.5-5.9c16.1-9.1,35-9.7,54.4-10.2c7.2-0.2,17.1,1.9,23.7-0.9c4.7-2,8.9-7.6,11.7-11.1
		c7.2-8.8,17.8-15.5,28.7-20.9c12.5-6.2,26.7-7.9,40.4-11.7c4.2-1.1,8.1-1.3,12-2.1c5.1-1.1,10-4,14.5-6.2
		c7.6-3.8,14.4-8.5,21.7-12.7c3.1-1.8,6.7-4.8,10.8-4.8c2,2.4,1.1,4.9-2.7,7.3c-4.7,6.6-8.1,13.6-10.5,21c-2,7-4.1,14-6,21
		c-1.6,2.4-1.8,4.6-0.5,6.8c8,0.4,14.5,0.3,15,8.5c0.3,5.5-0.1,11.1-0.1,16.5c0,10.4,2.2,22.2-0.7,32.4c-1.2,3.1-2.3,6.3-3.5,9.4
		c-1.4,3.4-3.6,6.5-6.4,9.2c-1.3,4.2-0.4,7.3-2.6,11.9c-2.6,5.4-10.1,12.4-8.5,18.7c0.3-6.2,0.1-12.5,0.1-18.7
		c0-3.4,1.2-10.5,0.2-14.4c-1.9-7.1-7.2-7.6-14.8-7.2c-5.4,0.3-7.5,0.9-7.3-5.1c0.1-5.2,3.7-6.7,4.9-11.1c1.8-6.1-0.7-14.5-2.8-20.4
		c-3.1-8.8-15.9-3.9-22.2-0.4c-10.5,5.8-19.8,14.1-32.9,15.4c-2.5,0.2-4.6,0.1-7.1,0.2c-4.8,0.2-7.1,2.3-11.6,3.3
		c-4.3,0.3-8.6,0.5-12.9,0.7c-4,0.7-7.8,1.6-11.6,2.9c-7.5,1.4-13.4-0.3-20.5,2.7c-12.9,5.4-24.4,11-36.6,17.4
		c-6.5,3.4-13.9,8.7-21.3,10.5c-4,1-5.4-0.2-6.7,3.7c-0.7,2.3,0.2,6.3,0.2,8.6c0,10.4,2.8,22.5-3.8,31.9c-2.4,3.4-2.6,1.8-6.8,3.4
		c-5,1.9-9.5,8.4-13,11.4c-6.3,5.5-14.6,10.3-19.3,16.8c-1.7,2.3-2.6,4.6-4.6,6.6c-1.3,1.3-2.2,2.4-4.1,3.8
		c-6.5,5-13.2,8.2-20.8,12.2c-6.2,3.3-12.4,8-19.6,9.8c-4.2,1.1-6.8,1.1-10.4,2.7c-10.7,4.8-20.4,10.6-31.9,14.5
		c-4.7,1.6-11.1,4.8-16.3,3.2c13.1-6.7,28.6-11,37.3-22.2c2-2.6,2.2-5.1,3.6-7.7c2-3.5,5.5-7.3,8.4-10.4c2.9-3.1,6.2-9.8,10-12.2
		c3.5-2.2,6.2,0.4,9.4-1.3c2.3-1.3,3.1-5,5.3-6.9c4.3-3.6,7.4-4.9,10.1-9.3c4.8-7.6,3.8-14.6,3.8-23c0-2.6-0.6-5.6-0.3-8.1
		c0.3-3.3,2.8-6.1,4.5-8.9c2.8-4.7,4.9-9.2,6.7-14.2c1.8-4.9,3.4-9.4,6.1-13.9c0.9-1.5,2.7-3.2,2.7-5c0.1-3.1-0.5-3.2-3.7-3.5
		c-5.7-0.5-12.3,6.4-15.3,9.6c-7.1,7.3-12.3,15.6-18.1,23.5c-5.9,8-18.7,11.4-28.3,15.7c-8.7,3.9-17.2,9.2-26.5,12
		c-6.4,1.9-10.8,3.1-16.1,7.1c-9.2,6.9-18.5,13.3-29.4,17.9c-3.3,1.4-7,2.8-10.5,4.2c-4.2,1.7-8.3,2.4-12.8,3.5
		c-5.2,1.3-9.5,3.8-14.4,5.6c-13.6,4.7-31,6.8-45.6,6.6c-7.9-0.1-16.3,0.9-24.1-0.3c-5.3-0.8-9.6-2.7-13.5-5.7c-2.5-2-4-4.2-7.6-4.8
		c-1.5-0.2-3.3,0.6-4.9,0.3c-2.9-0.4-3.4-2-6-3c-5.5-2-13-1-19-1c-19.9,0.1-37.4,9.7-56.3,13.6c-5.5,1.1-11.1,1.9-16.7,2.8
		c-7.6,1.2-15.3,0.8-22.7,1.7c-4.9,0.6-7.7,3.3-12.6,3.8c-6.8,0.6-14.1-0.2-20.9-0.1c-4.6,0-9.5,0.1-13.5-2.2
		c-3.5-2-2.4-3.1-7.3-3.2C1153,894.3,1148.8,894.5,1125.2,899.8z"/>
</g>
<g>
	<path opacity="3.000000e-02" fill="#FFFFFF" d="M1426.3,1017.7c-70.1-4.7-137.3-25.1-197.4-56.7c-30-15.8-65.1-21.6-99.7-22.2
		c-75-1.1-147.6-24.8-202-69.7c-26.3-21.8-68.4-39.6-135.5-43.5c-16.4-0.9-31.8-1-46.1-0.2C630.8,831.6,516.7,810,413,766.9
		c-44.9-18.7-104.4-31.1-183-31.1c-112.5,0-184.2,22.4-230,51.3v267.8c124.1,1.3,259.1,2,400.3,2c607.8,0,1100.6-12.8,1100.6-28.6
		C1500.8,1024.4,1474.4,1020.9,1426.3,1017.7z"/>
	<path opacity="3.000000e-02" fill="#FFFFFF" d="M1920,667.8c-22.3,3.6-46.3,8.8-72,15.9c-74.6,20.5-126.3,47.8-161.8,77.3
		c-82,68-182,118.2-293.3,142.3c-13.9,3-28.5,7-43.7,12.2c-62.2,21.2-95.3,49.1-112,76.6c-21.8,35.9-53.8,65.7-92.2,87.9h490.1
		c56.5-15.2,114.4-31,173.5-47.3c37.7-10.3,74.8-20.6,111.4-30.8V667.8z"/>
	<linearGradient id="SVGID_6_" gradientUnits="userSpaceOnUse" x1="960" y1="747.2947" x2="960" y2="1107.236">
		<stop  offset="0" style="stop-color:#00192D"/>
		<stop  offset="1" style="stop-color:#002D4D"/>
	</linearGradient>
	<path fill="url(#SVGID_6_)" d="M1920,882.7c-27.5,0-55-0.1-82.6-0.1c-7.3,0-17-1.5-24,0c-5.7,1.3-11.6,6-16.4,8.7
		c-8.2,4.5-16.6,8.8-25,13c-7.7,3.8-15.2,9.1-23.1,12.4c-5.4,2.3-12,1.9-17.6,2.8c-4.7,0.7-7.2,2.8-11.6,4.2
		c-5.4,1.7-6.9,0.8-11.5,4.3c-4.4,3.3-6.5,8.1-9.9,12c-8.6,10-21,20.3-33.9,26.5c-8.9,4.3-17,3.7-26.7,3.8c-3.6,0-6.5,0-10-0.4
		c-18.5-2-35.7-4.4-54.7-4.4c-14.6,0-30-1.6-43.7,2.5c-8,2.4-15.7,2.4-24.2,3.5c-17.4,2.2-33.9,8.1-51.4,10.1
		c-3.6,0.4-7.4-0.4-10.9-0.1c-8.9,0.9-13.5,6.2-20,11c-14.6,10.8-32,18.1-50.6,22.9c-12.3,3.1-25.2,7.9-38.2,8.3
		c-6.2,0.2-15.3,1.3-21-1.1c-5-2.1-7.3-5.2-13.1-6.1c-11.5-1.8-23.6-3.1-35.3-4.1c-21.7-1.8-43.7-2.5-65.5-2.8
		c-7.3-0.1-11.9,0.1-17.9-3.2c-8.1-4.4-12.9-12-18.6-18.6c-4.2-4.7-8.2-9.3-12.8-13.8c-1.2-1.2-3.8-4.9-5.4-5.6
		c-6.4-3.1-21.8-0.4-28.4-0.4c-24.2,0.1-48.5-0.1-72.7,0.1c-10.7,0.1-20.4-0.8-29.8-5.5c-9-4.5-16.2-11.3-25.8-15.1
		c-14.5-5.8-29.9-4.7-45.5-5c-25.1-0.3-48.9,1.4-73.1,7.1c-22.7,5.4-43.9,14.9-66.9,19.3c-6.1,1.2-13.9,2.6-20.3,1.5
		c-7.4-1.4-12.2-6.4-17.7-10.3c-9.1-6.5-19.9-12.4-30.6-17c-14.6-6.3-37.7-3.1-53.8-2.8c-6.2,0.1-11.9-0.1-18.1-0.9
		c-21.4-2.5-44.2-4.1-65.1-8.8c-16.5-3.7-31-9.4-43.6-18.7c-4.2-3.1-4.8-4.3-10.3-3.9c-11.1,0.9-21.9,3.8-33.3,4.5
		c-16.4,1-33.1,4.3-49.5,4.6c-6.2,0.1-5.6,0-8-4.6c-4.8-9.3-11.7-15.6-18.5-23.8c-4.6-5.6-5.8-12.2-9.4-18.1
		c-6.4-10.6-23.3-14.5-36.1-18.5c-25.4-8-50.6-16.8-75.8-25.3c-19.1-6.4-35.8-9-55.9-9c-7.4,0-15.7-0.9-23-0.1
		c-3.6,0.4-6.6,1.6-10.2,2.2c-10.4,1.8-24.1,0.9-34.7,0.3c-8.6-0.5-16.9-3.1-25.1-5.1c-16.7-4.2-33.5-8.1-50.8-10.3
		c-9.3-1.2-28.2,2.1-35.8-3.2C68,795.6,64,784.3,58,776.6c-9.9-12.7-21-21-37.3-27.5c-6.3-2.5-13.3-5.9-20.7-9.1v340h1920V882.7z"/>
</g>
<g>
</g>
<g>
</g>
<g>
</g>
<g>
</g>
<g>
</g>
<g>
</g>
<g>
</g>
<g>
</g>
<g>
</g>
<g>
</g>
<g>
</g>
<g>
</g>
<g>
</g>
<g>
</g>
<g>
</g>
</svg>
