<?xml version="1.0" encoding="utf-8"?>
<!-- Generator: Adobe Illustrator 21.0.0, SVG Export Plug-In . SVG Version: 6.00 Build 0)  -->
<svg version="1.1" id="Layer_1" xmlns="http://www.w3.org/2000/svg" xmlns:xlink="http://www.w3.org/1999/xlink" x="0px" y="0px"
	 width="238.6px" height="199.1px" viewBox="0 0 238.6 199.1" enable-background="new 0 0 238.6 199.1" xml:space="preserve">
<polygon fill="#CB7829" points="42.7,77.6 42.3,77.3 42.3,77.3 "/>
<path fill="#171313" d="M40.2,132.4c0-0.1,0.1-0.1,0.1-0.2C40.2,132.3,40.2,132.4,40.2,132.4z"/>
<path fill="#171313" d="M37.8,104.8c0.2-0.3,0.3-0.6,0.4-0.9c0.1-0.2,0.2-0.5,0.3-0.7C38.3,103.7,38,104.2,37.8,104.8z"/>
<polygon fill="#171313" points="25.9,67.7 32.1,88.9 30.4,90.8 18.8,73.5 16.7,74.2 8.2,52.2 "/>
<polygon fill="#FCC792" points="40.1,80.2 40.2,80.3 38.9,81.7 32.1,88.9 30.4,90.8 18.8,73.5 16.7,74.2 8.2,52.2 25.9,67.7 "/>
<polygon fill="#FCC792" points="42.7,77.6 42.3,77.3 42.3,77.3 "/>
<polygon fill="#CB7829" points="42.7,77.7 42.7,77.6 42.7,77.6 "/>
<polygon fill="#F9A83B" points="42.7,77.6 42.3,77.3 42.3,77.3 "/>
<polygon fill="#F9A83B" points="42.7,77.7 42.7,77.6 42.7,77.6 "/>
<path fill="#FCC792" d="M67.8,94c-0.5,1.3-1.3,2.9-1.9,3.9c-1.8,2.9-4.3,4.9-7,6.1c-1.1,0.5-2.3,0.9-3.5,1.2l0,0
	c-1.3,0.3-2.7,0.6-4,0.7c-1.6,0.2-3.1,0.2-4.6,0.2c-1.3,0-2.5-0.1-3.6-0.2c-3.2-0.3-5.5-0.9-5.7-1v-0.1c0.1-0.3,0.3-0.6,0.4-0.9
	c0.3-0.6,0.5-1.2,0.7-1.7c0.1-0.4,0.3-0.8,0.4-1.2c0.1-0.3,0.2-0.6,0.3-0.9c0-0.1,0.1-0.2,0.1-0.3c0.1-0.2,0.1-0.4,0.2-0.6
	c0-0.1,0.1-0.2,0.1-0.3v-0.1c0.1-0.3,0.2-0.7,0.2-1c0.1-0.4,0.2-0.9,0.2-1.3c0-0.3,0.1-0.7,0.1-1c0-0.2,0-0.4,0.1-0.6
	c0.1-0.6,0.1-1.2,0.1-1.7v-0.1c0-0.1,0-0.2,0-0.4c0-0.1,0-0.2,0-0.2c0-0.4,0-0.8,0-1.1c0-0.2,0-0.3,0-0.5c0,0,0,0,0-0.1l0,0l0,0
	c0-0.2,0-0.4,0-0.6l0,0c-0.3-3.2-1-5.7-1.4-7.2c0-0.1-0.1-0.3-0.1-0.4c-0.1-0.4-0.2-0.6-0.3-0.7c0-0.1,0-0.1,0-0.1l1.4-1.5l0.8,0.7
	l9.4,4.6L49.8,84l-0.4-1.8l16.9,11.2L67.8,94z"/>
<path fill="#333333" d="M0,40.3l0.1,1l0.1,0.5l0.1,0.3l0.1,0.6l0.3,2.7l4.7,4.1l3,2.6l17.7,15.5l14.2,12.5l0.1,0.1L41,81l9.3,4.6
	l16,7.9l2.6-0.9l-0.1,1l7.7,0.2L93.2,94l1.4,3.2c0.3,0.1,0.6,0.2,0.9,0.2l0,0c4.7,1.4,9.7,3.7,14,7.5c-0.5-0.7-15-19.7-29.8-35.4
	c-3.3-3.5-6.7-6.8-9.9-9.8c0,0,0-0.3,0-0.8C69.9,51.1,68.3-11,0,40.3z M42.3,77.4L42.3,77.4l0.3,0.3L42.3,77.4z"/>
<path fill="#333333" d="M0,41.3c0,0,38,58.3,109.5,64.7L81.1,72.6L21.5,41.3H0z"/>
<linearGradient id="SVGID_1_" gradientUnits="userSpaceOnUse" x1="-159.9767" y1="82.7318" x2="-25.5767" y2="82.7318" gradientTransform="matrix(-1 0 0 -1 78.6233 202)">
	<stop  offset="0" style="stop-color:#FF6C55"/>
	<stop  offset="1" style="stop-color:#FFE37F"/>
</linearGradient>
<path fill="url(#SVGID_1_)" d="M207.6,44.5c0,0,11.2,98.5,31,121.8c0,0-22.5,31.3-54.7,27.4c0,0-22.4-49.7-79.7-100.9L207.6,44.5z"
	/>
<ellipse transform="matrix(0.9076 -0.4198 0.4198 0.9076 -14.5109 71.8624)" fill="#683E05" cx="156" cy="68.9" rx="57.1" ry="9.9"/>
<path fill="#171313" d="M37.8,104.8c0.2-0.3,0.3-0.6,0.4-0.9c0.1-0.2,0.2-0.5,0.3-0.7C38.3,103.7,38,104.2,37.8,104.8z"/>
<path fill="#333333" d="M99.9,93.7c0,0,33.4,17.5,60.5,74.1c0,0-42-65.4-69-71.9c-0.5-0.1-0.9-0.2-1.4-0.3
	C63.2,91,99.9,93.7,99.9,93.7z"/>
<ellipse transform="matrix(0.3655 -0.9308 0.9308 0.3655 0.503 97.7992)" fill="#333333" cx="72" cy="48.5" rx="10.1" ry="13.4"/>
<path fill="#C4C4C4" d="M60.7,106.1c-1,1.9-0.2,4.1,1.7,5.1c1.9,0.9,4.2,0.1,5.1-1.8c1-1.9,0.2-4.1-1.7-5.1
	C64,103.4,61.7,104.2,60.7,106.1z"/>
<path fill="#C4C4C4" d="M57.6,115c-1,1.9-0.2,4.1,1.7,5.1c1.9,0.9,4.2,0.1,5.1-1.8c1-1.9,0.2-4.1-1.7-5.1
	C60.9,112.3,58.6,113.1,57.6,115z"/>
<path fill="#C4C4C4" d="M52.7,124.1c-0.9,1.8-0.2,3.9,1.6,4.8s4,0.1,4.9-1.7s0.2-3.9-1.6-4.8C55.8,121.6,53.6,122.3,52.7,124.1z"/>
<path fill="#C4C4C4" d="M48.5,132.3c-0.9,1.8-0.2,3.9,1.6,4.8c1.8,0.9,4,0.1,4.9-1.7s0.2-3.9-1.6-4.8
	C51.6,129.8,49.4,130.6,48.5,132.3z"/>
<path fill="#C4C4C4" d="M43.6,139.8c-0.9,1.8-0.2,3.9,1.6,4.8c1.8,0.9,4,0.1,4.9-1.7s0.2-3.9-1.6-4.8S44.5,138,43.6,139.8z"/>
<path fill="#C4C4C4" d="M37.3,146.5c-0.9,1.8-0.2,3.9,1.6,4.8c1.8,0.9,4,0.1,4.9-1.7s0.2-3.9-1.6-4.8
	C40.4,144,38.2,144.7,37.3,146.5z"/>
<path fill="#C4C4C4" d="M29.9,147.2c-0.9,1.8-0.2,3.9,1.6,4.8c1.8,0.9,4,0.1,4.9-1.7s0.2-3.9-1.6-4.8
	C33,144.7,30.8,145.4,29.9,147.2z"/>
<path fill="#C4C4C4" d="M24.9,141.5c-0.7,1.9-0.1,4.1,1.2,5.1c1.4,0.9,3.1,0.1,3.8-1.8c0.7-1.9,0.1-4.1-1.2-5.1
	C27.3,138.9,25.6,139.7,24.9,141.5z"/>
<path fill="#C4C4C4" d="M24.1,132.5c-0.7,1.9-0.1,4.1,1.2,5.1c1.4,0.9,3.1,0.1,3.8-1.8c0.7-1.9,0.1-4.1-1.2-5.1
	C26.5,129.8,24.8,130.6,24.1,132.5z"/>
<path fill="#C4C4C4" d="M23.8,123.1c-0.7,1.9-0.1,4.1,1.2,5.1c1.4,0.9,3.1,0.1,3.8-1.8c0.7-1.9,0.1-4.1-1.2-5.1
	C26.2,120.4,24.5,121.2,23.8,123.1z"/>
<path fill="#C4C4C4" d="M24.1,113.8c-0.7,1.9-0.1,4.1,1.2,5.1c1.4,0.9,3.1,0.1,3.8-1.8c0.7-1.9,0.1-4.1-1.2-5.1
	C26.5,111.1,24.8,111.9,24.1,113.8z"/>
<path fill="#C4C4C4" d="M25.5,104.9c-0.7,1.9-0.1,4.1,1.2,5.1c1.4,0.9,3.1,0.1,3.8-1.8c0.7-1.9,0.1-4.1-1.2-5.1
	C27.9,102.2,26.2,103,25.5,104.9z"/>
<path fill="#FFFFFF" d="M25.5,96.4c-1,1.9-0.2,4.1,1.7,5.1c1.9,0.9,4.2,0.1,5.1-1.8c1-1.9,0.2-4.1-1.7-5.1
	C28.8,93.7,26.5,94.5,25.5,96.4z"/>
<path fill="#262626" d="M61.6,108.8c-1.2,1.6-0.8,3.8,0.9,4.9c1.7,1.2,4,0.8,5.1-0.7c1.2-1.6,0.8-3.8-0.9-4.9
	C65.1,106.9,62.8,107.2,61.6,108.8z"/>
<path fill="#C4C4C4" d="M64.7,98.1c-1,1.9-0.2,4.1,1.7,5.1c1.9,0.9,4.2,0.1,5.1-1.8c1-1.9,0.2-4.1-1.7-5.1
	C68,95.4,65.7,96.2,64.7,98.1z"/>
<path fill="#262626" d="M65.6,100.8c-1.2,1.6-0.8,3.8,0.9,4.9c1.7,1.2,4,0.8,5.1-0.7c1.2-1.6,0.8-3.8-0.9-4.9
	C69.1,99,66.8,99.3,65.6,100.8z"/>
<path fill="#262626" d="M57.4,116.4c-1.2,1.6-0.8,3.8,0.9,4.9c1.7,1.2,4,0.8,5.1-0.7c1.2-1.6,0.8-3.8-0.9-4.9
	C60.9,114.5,58.6,114.9,57.4,116.4z"/>
<path fill="#262626" d="M52.9,124.2c-1.2,1.6-0.8,3.8,0.9,4.9c1.7,1.2,4,0.8,5.1-0.7c1.2-1.6,0.8-3.8-0.9-4.9
	C56.3,122.4,54,122.7,52.9,124.2z"/>
<path fill="#262626" d="M46.4,130.9c-1.1,1.5-0.7,3.5,0.9,4.6c1.6,1.1,3.7,0.8,4.8-0.7s0.7-3.5-0.9-4.6
	C49.7,129.1,47.5,129.4,46.4,130.9z"/>
<path fill="#262626" d="M41.5,137.7c-1.2,1.6-0.8,3.8,0.9,4.9c1.7,1.2,4,0.8,5.1-0.7c1.2-1.6,0.8-3.8-0.9-4.9
	C44.9,135.8,42.6,136.1,41.5,137.7z"/>
<path fill="#262626" d="M34.2,143.1c-1.2,1.6-0.8,3.8,0.9,4.9c1.7,1.2,4,0.8,5.1-0.7c1.2-1.6,0.8-3.8-0.9-4.9
	C37.7,141.2,35.4,141.5,34.2,143.1z"/>
<path fill="#262626" d="M26.9,142c-0.8,1.6-0.6,3.8,0.7,4.9c1.2,1.2,2.9,0.8,3.7-0.7c0.8-1.6,0.6-3.8-0.7-4.9
	C29.4,140.1,27.7,140.5,26.9,142z"/>
<path fill="#262626" d="M23.5,134.5c-0.8,1.6-0.6,3.8,0.7,4.9c1.2,1.2,2.9,0.8,3.7-0.7c0.8-1.6,0.6-3.8-0.7-4.9
	C26,132.6,24.3,132.9,23.5,134.5z"/>
<path fill="#262626" d="M23.6,126.1c-0.8,1.6-0.6,3.8,0.7,4.9c1.2,1.2,2.9,0.8,3.7-0.7c0.8-1.6,0.6-3.8-0.7-4.9
	C26.1,124.2,24.5,124.5,23.6,126.1z"/>
<path fill="#262626" d="M24.2,117.4c-0.8,1.6-0.6,3.8,0.7,4.9c1.2,1.2,2.9,0.8,3.7-0.7c0.8-1.6,0.6-3.8-0.7-4.9
	C26.8,115.5,25.1,115.8,24.2,117.4z"/>
<path fill="#262626" d="M25.5,109c-0.8,1.6-0.6,3.8,0.7,4.9c1.2,1.2,2.9,0.8,3.7-0.7c0.8-1.6,0.6-3.8-0.7-4.9
	C28,107.1,26.4,107.4,25.5,109z"/>
<path fill="#262626" d="M25.8,101.2c-1.2,1.6-0.8,3.8,0.9,4.9c1.7,1.2,4,0.8,5.1-0.7c1.2-1.6,0.8-3.8-0.9-4.9
	C29.2,99.3,26.9,99.6,25.8,101.2z"/>
<path fill="#262626" d="M29.5,93.9c-1.2,1.6-0.8,3.8,0.9,4.9c1.7,1.2,4,0.8,5.1-0.7c1.2-1.6,0.8-3.8-0.9-4.9
	C33,92,30.7,92.3,29.5,93.9z"/>
<path fill="#333333" d="M26.3,105.3c0.8,0.7,1.6,1.3,2.4,1.9c0,0,1.2,1.3,2.8,3.3c0.2,0.2,0.3,0.4,0.5,0.6c0.1,0.1,0.2,0.2,0.3,0.4
	c1.6,2.1,3.5,4.6,5.1,7.4c2.8,4.7,4.7,9.8,3,13.2c0.8-1.6,4.5-9.9,4-19.6c-0.1-2.2-0.4-4.4-1-6.6c-0.7-2.6-1.7-5.3-3.3-7.9l0,0l0,0
	l0,0c0.3-1.8,0.5-3.5,0.5-5.1v-0.2c0-0.4,0-0.8,0-1.1c0-0.2,0-0.4,0-0.6c-0.2-3.4-0.9-6.3-1.3-7.8c0-0.1-0.1-0.3-0.1-0.4
	c-0.1-0.4-0.2-0.6-0.2-0.7V82l-6.2,6.6l-0.5,0.6l0,0l-0.4,0.5l-1.3,1.4L18.8,73.5l-2.1,0.7l-8.5-22l-3-2.6C5,60.5,6.4,89,26.3,105.3
	z"/>
<path fill="#333333" d="M40.1,97.9L40.1,97.9L40.1,97.9L40.1,97.9z"/>
<path fill="#333333" d="M32.1,88.9c0.4,0.3,0.7,0.6,1.1,0.9C32.9,89.5,32.5,89.2,32.1,88.9L32.1,88.9z"/>
<path fill="#333333" d="M32.1,88.9c0.4,0.3,0.7,0.6,1.1,0.9C32.9,89.5,32.5,89.2,32.1,88.9L32.1,88.9z"/>
<linearGradient id="SVGID_2_" gradientUnits="userSpaceOnUse" x1="-97.7338" y1="93.0194" x2="21.9807" y2="122.0028" gradientTransform="matrix(-1 0 0 -1 78.6233 202)">
	<stop  offset="0" style="stop-color:#7F4E00"/>
	<stop  offset="1" style="stop-color:#B44A00"/>
</linearGradient>
<polygon fill="url(#SVGID_2_)" points="223.9,132.2 4,48.5 9.9,61.2 226.2,139.8 "/>
<linearGradient id="SVGID_3_" gradientUnits="userSpaceOnUse" x1="87.5" y1="145.0208" x2="140.5098" y2="145.0208" gradientTransform="matrix(1 0 0 -1 0 202)">
	<stop  offset="0" style="stop-color:#FFBB65"/>
	<stop  offset="1" style="stop-color:#CC3A00"/>
</linearGradient>
<path fill="url(#SVGID_3_)" d="M129.9,90L87.5,38.1L98.2,24l42.4,62.2C138.6,87,132.9,89.1,129.9,90z"/>
<linearGradient id="SVGID_4_" gradientUnits="userSpaceOnUse" x1="117.9233" y1="174.6889" x2="148.8177" y2="127.1869" gradientTransform="matrix(1 0 0 -1 0 202)">
	<stop  offset="0" style="stop-color:#D06038"/>
	<stop  offset="1" style="stop-color:#AB5F22"/>
</linearGradient>
<path fill="url(#SVGID_4_)" d="M151.6,81.7L113.8,2.9L95,0l48.7,85C143.7,85,147.3,83.6,151.6,81.7z"/>
<rect x="154.6" y="101.8" fill="#513409" width="3.6" height="17.7"/>
<linearGradient id="SVGID_5_" gradientUnits="userSpaceOnUse" x1="-40.9536" y1="127.988" x2="3.3697" y2="127.988" gradientTransform="matrix(-1 0 0 -1 78.6233 202)">
	<stop  offset="0" style="stop-color:#7F4E00"/>
	<stop  offset="1" style="stop-color:#B44A00"/>
</linearGradient>
<path fill="url(#SVGID_5_)" d="M111.8,82.9l-28.5-9.2c0,0-6.9-7.3-8.1-8.5s44.3,12.2,44.3,12.2L111.8,82.9z"/>
<path fill="#333333" d="M38.5,79.4c0,0,79.2,27.1,121.9,88.5C160.4,167.8,132.9,92.6,38.5,79.4z"/>
</svg>
