<?xml version="1.0" encoding="utf-8"?>
<!-- Generator: Adobe Illustrator 21.0.0, SVG Export Plug-In . SVG Version: 6.00 Build 0)  -->
<svg version="1.1" id="Layer_1" xmlns="http://www.w3.org/2000/svg" xmlns:xlink="http://www.w3.org/1999/xlink" x="0px" y="0px"
	 width="1280px" height="700px" viewBox="0 0 1280 700" enable-background="new 0 0 1280 700" xml:space="preserve">
<linearGradient id="SVGID_1_" gradientUnits="userSpaceOnUse" x1="168.5197" y1="-120.2611" x2="490.2135" y2="-137.1902" gradientTransform="matrix(0.1847 0.9828 0.9828 -0.1847 1071.3906 304.3337)">
	<stop  offset="0.115" style="stop-color:#DCFF43"/>
	<stop  offset="0.2075" style="stop-color:#9EE752"/>
	<stop  offset="0.3008" style="stop-color:#66D15F"/>
	<stop  offset="0.3875" style="stop-color:#3AC06A"/>
	<stop  offset="0.4647" style="stop-color:#1AB472"/>
	<stop  offset="0.5297" style="stop-color:#07AD76"/>
	<stop  offset="0.5746" style="stop-color:#00AA78"/>
	<stop  offset="0.7643" style="stop-color:#007C78"/>
	<stop  offset="0.9145" style="stop-color:#005F78"/>
	<stop  offset="1" style="stop-color:#005478"/>
</linearGradient>
<path opacity="0.74" fill="url(#SVGID_1_)" enable-background="new    " d="M1221.7,569.5c-50.4-6.9-89.4,70.9-178.8,5.7
	c-57.2-41.7-151-66.4-231.9,24s-76.8,209.6-24.5,341.9s91.9-102,244.6-71c152.7,31,216.2-37.8,238.9-139.1
	C1292.7,629.8,1278,577.2,1221.7,569.5z"/>
<linearGradient id="SVGID_2_" gradientUnits="userSpaceOnUse" x1="1126.9852" y1="274.8636" x2="1201.9413" y2="73.0166" gradientTransform="matrix(0.2312 1.2509 -1.6863 0.3117 1230.3019 -1134.4159)">
	<stop  offset="0" style="stop-color:#B9FF43"/>
	<stop  offset="0.5271" style="stop-color:#1AB472"/>
	<stop  offset="1" style="stop-color:#005478"/>
</linearGradient>
<path opacity="0.74" fill="url(#SVGID_2_)" enable-background="new    " d="M1464.2,881.5c68.5-57.9,20.9-164.1,5.2-205.4
	c-35.1-92.2-151.4-303.5-51.5-425.9s385.7-409.3,168.3-406.7c-217.4,2.6-408.9,98.4-495,216.3c-60,82.1-100.5,214,37.9,352.2
	c225.3,224.9-64,337-30.9,418.7C1131.5,912.8,1296.2,1023.9,1464.2,881.5z"/>
<g>
</g>
<g>
</g>
<g>
</g>
<g>
</g>
<g>
</g>
<g>
</g>
<g>
</g>
<g>
</g>
<g>
</g>
<g>
</g>
<g>
</g>
<g>
</g>
<g>
</g>
<g>
</g>
<g>
</g>
</svg>
